<?xml version="1.0" encoding="UTF-8" standalone="no"?>
<!-- Created with Inkscape (http://www.inkscape.org/) -->

<svg
   width="251.47746mm"
   height="89.24955mm"
   viewBox="0 0 251.47746 89.24955"
   version="1.1"
   id="svg5"
   inkscape:version="1.1.1 (3bf5ae0d25, 2021-09-20)"
   sodipodi:docname="gust.svg"
   xmlns:inkscape="http://www.inkscape.org/namespaces/inkscape"
   xmlns:sodipodi="http://sodipodi.sourceforge.net/DTD/sodipodi-0.dtd"
   xmlns:xlink="http://www.w3.org/1999/xlink"
   xmlns="http://www.w3.org/2000/svg"
   xmlns:svg="http://www.w3.org/2000/svg">
  <sodipodi:namedview
     id="namedview7"
     pagecolor="#ffffff"
     bordercolor="#666666"
     borderopacity="1.0"
     inkscape:pageshadow="2"
     inkscape:pageopacity="0.0"
     inkscape:pagecheckerboard="0"
     inkscape:document-units="mm"
     showgrid="false"
     inkscape:zoom="0.7616793"
     inkscape:cx="422.7501"
     inkscape:cy="63.018648"
     inkscape:window-width="1920"
     inkscape:window-height="1052"
     inkscape:window-x="0"
     inkscape:window-y="0"
     inkscape:window-maximized="1"
     inkscape:current-layer="layer1"
     fit-margin-top="0"
     fit-margin-left="0"
     fit-margin-right="0"
     fit-margin-bottom="0" />
  <defs
     id="defs2">
    <linearGradient
       inkscape:collect="always"
       id="linearGradient2026">
      <stop
         style="stop-color:#50aca3;stop-opacity:1"
         offset="0"
         id="stop2022" />
      <stop
         style="stop-color:#e4eff0;stop-opacity:1"
         offset="1"
         id="stop2024" />
    </linearGradient>
    <linearGradient
       inkscape:collect="always"
       xlink:href="#linearGradient2026"
       id="linearGradient2127"
       gradientUnits="userSpaceOnUse"
       x1="214.07521"
       y1="102.35551"
       x2="227.31902"
       y2="118.78255" />
  </defs>
  <g
     inkscape:label="Layer 1"
     inkscape:groupmode="layer"
     id="layer1"
     transform="translate(11.567732,-94.782221)">
    <g
       aria-label="Gust"
       id="text3717"
       style="font-weight:300;font-size:117.058px;font-family:Quicksand;-inkscape-font-specification:'Quicksand, Light';stroke-width:0.131165"
       transform="translate(-108.15519,-2.647921)">
      <path
         d="m 138.61128,181.7119 q -9.13052,0 -16.85635,-3.04351 -7.60877,-3.16056 -13.34461,-8.77935 -5.61879,-5.73584 -8.779354,-13.46167 -3.043508,-7.72582 -3.043508,-16.85635 0,-9.13052 3.043508,-16.85635 3.160564,-7.72583 8.779354,-13.34461 5.73584,-5.73584 13.34461,-8.77935 7.72583,-3.160568 16.85635,-3.160568 6.43819,0 12.40815,1.638812 5.96996,1.521756 10.65228,4.682316 0.58529,0.35118 0.8194,0.93647 0.23412,0.46823 0.23412,1.05352 0,1.17058 -0.81941,1.75587 -0.8194,0.58529 -1.40469,0.58529 -0.46824,0 -0.81941,-0.11706 -0.35117,-0.23411 -0.70235,-0.35117 -4.33114,-2.45822 -9.4817,-3.97997 -5.15055,-1.52176 -10.88639,-1.52176 -10.88639,0 -19.31457,4.91644 -8.31112,4.79938 -13.1105,13.22755 -4.68232,8.42818 -4.68232,19.31457 0,10.8864 4.68232,19.43163 4.79938,8.42817 13.1105,13.22755 8.42818,4.79938 19.31457,4.79938 5.8529,0 11.47168,-1.75587 5.73585,-1.87293 10.06699,-4.79938 l -0.46823,2.10705 v -29.2645 l 1.63881,1.52175 h -22.70925 q -0.93646,0 -1.63881,-0.70235 -0.70235,-0.70234 -0.70235,-1.63881 0,-1.05352 0.70235,-1.63881 0.70235,-0.70235 1.63881,-0.70235 h 23.4116 q 1.05352,0 1.63881,0.70235 0.70235,0.70235 0.70235,1.63881 v 29.38156 q 0,0.46823 -0.23412,1.05352 -0.23411,0.58529 -0.8194,1.05352 -5.15055,3.51174 -11.58874,5.61879 -6.32114,2.10704 -13.1105,2.10704 z"
         id="path4193"
         style="fill:#a1a1a1;fill-opacity:1" />
      <path
         d="m 225.8193,122.12938 q 1.05352,0 1.63881,0.70235 0.70235,0.70235 0.70235,1.63881 v 34.06388 q 0,11.35462 -6.43819,17.09046 -6.32113,5.61879 -16.85635,5.61879 -10.41817,0 -16.85636,-5.61879 -6.32113,-5.73584 -6.32113,-17.09046 v -34.06388 q 0,-0.93646 0.70235,-1.63881 0.70235,-0.70235 1.63881,-0.70235 1.05352,0 1.63881,0.70235 0.70235,0.70235 0.70235,1.63881 v 34.06388 q 0,8.8964 4.91644,13.57872 5.03349,4.68232 13.57873,4.68232 8.66229,0 13.57872,-4.68232 5.0335,-4.68232 5.0335,-13.57872 v -34.06388 q 0,-0.93646 0.58529,-1.63881 0.70235,-0.70235 1.75587,-0.70235 z"
         id="path4195"
         style="fill:#a1a1a1;fill-opacity:1" />
      <path
         d="m 244.31443,171.17668 q -0.81941,-1.4047 -0.81941,-2.2241 0.11706,-0.93647 0.93646,-1.52176 0.58529,-0.58529 1.52176,-0.46823 1.05352,0 1.75587,0.81941 3.04351,4.33114 7.72583,7.02348 4.79937,2.69233 11.23756,2.69233 3.86292,0 7.37466,-1.28764 3.6288,-1.28763 5.8529,-3.86291 2.34116,-2.57528 2.34116,-6.32113 0,-3.97997 -2.2241,-6.32113 -2.22411,-2.45822 -5.73585,-3.86292 -3.51174,-1.40469 -7.37465,-2.34116 -4.09703,-1.05352 -7.84289,-2.34116 -3.62879,-1.40469 -6.43819,-3.39468 -2.80939,-2.10704 -4.4482,-4.91643 -1.63881,-2.8094 -1.63881,-6.67231 0,-4.56526 2.45822,-8.19406 2.45821,-3.6288 6.90642,-5.61878 4.4482,-2.10705 10.3011,-2.10705 2.80939,0 5.96996,0.70235 3.16057,0.70235 6.32113,2.45822 3.16057,1.63881 5.8529,4.68232 0.93647,0.70235 0.81941,1.75587 0,0.93646 -0.81941,1.75587 -0.70235,0.46823 -1.52175,0.46823 -0.81941,0 -1.4047,-0.70235 -3.04351,-3.39468 -7.14054,-5.03349 -3.97997,-1.63881 -8.54523,-1.63881 -3.86291,0 -7.2576,1.28763 -3.27762,1.28764 -5.38466,3.86292 -2.10705,2.45822 -2.10705,6.32113 0.23412,3.6288 2.45822,5.96996 2.34116,2.34116 6.08702,3.86291 3.86291,1.52176 8.66229,2.80939 3.86291,0.93647 7.14054,2.22411 3.39468,1.17058 5.8529,3.0435 2.57527,1.87293 3.97997,4.68232 1.52175,2.8094 1.52175,7.02348 0,4.91644 -2.69233,8.54524 -2.57528,3.51174 -7.2576,5.50172 -4.56526,1.87293 -10.53522,1.87293 -6.08701,0 -11.7058,-2.45822 -5.61878,-2.45822 -10.18404,-8.077 z"
         id="path4197"
         style="fill:#a1a1a1;fill-opacity:1" />
      <path
         d="m 296.63914,121.66115 h 27.15746 c 0.62431,0 1.13156,0.23412 1.52175,0.70235 0.46823,0.46823 0.70235,0.97548 0.70235,1.52175 0,0.62431 -0.23412,1.17058 -0.70235,1.63881 -0.39019,0.39019 -0.89744,0.58529 -1.52175,0.58529 h -27.15746 c -0.54627,0 -1.05352,-0.23412 -1.52175,-0.70235 -0.46823,-0.46823 -0.70235,-0.97548 -0.70235,-1.52175 0,-0.62431 0.23412,-1.13156 0.70235,-1.52175 0.46823,-0.46823 0.97548,-0.70235 1.52175,-0.70235 z m 11.93992,-17.20753 c 0.70235,0 1.24862,0.23412 1.63881,0.70235 0.46823,0.46823 0.70235,1.0145 0.70235,1.63881 V 167.782 c -0.37572,3.05369 1.08113,7.03122 -3.27762,8.077 -0.93647,-1.79489 -1.4047,-4.40918 -1.4047,-7.84289 v -61.22133 c 0,-0.62431 0.23412,-1.17058 0.70235,-1.63881 0.46823,-0.46823 1.0145,-0.70235 1.63881,-0.70235 z"
         id="path4199"
         sodipodi:nodetypes="sscsssssscsscsccssss"
         style="fill:#a1a1a1;fill-opacity:1" />
    </g>
    <g
       id="g9460"
       style="fill:url(#linearGradient2127);fill-opacity:1"
       transform="matrix(4.4562032,0,0,4.4562032,-786.97587,-358.6123)">
      <path
         style="fill:url(#linearGradient2127);fill-opacity:1;stroke:none;stroke-width:0.264583px;stroke-linecap:butt;stroke-linejoin:miter;stroke-opacity:1"
         d="m 226.33669,103.62357 c -2.42648,-1.20663 -9.58223,-1.10371 -12.01492,0.84246 -1.96693,1.57357 1.52397,4.88199 6.75821,4.22338 -2.96396,-0.6904 -5.38117,-1.78684 -4.25228,-3.13959 0.86438,-1.03577 5.20716,-1.63537 9.50899,-1.92625 z"
         id="path869"
         sodipodi:nodetypes="cscsc" />
      <path
         style="fill:url(#linearGradient2127);fill-opacity:1;stroke:none;stroke-width:0.264583px;stroke-linecap:butt;stroke-linejoin:miter;stroke-opacity:1"
         d="m 217.869,110.22264 c 2.42648,1.20663 9.58223,1.10371 12.01492,-0.84246 1.96693,-1.57357 -1.52397,-4.88199 -6.75821,-4.22338 2.96396,0.6904 5.38117,1.78684 4.25228,3.13959 -0.86438,1.03577 -5.20716,1.63537 -9.50899,1.92625 z"
         id="path869-0"
         sodipodi:nodetypes="cscsc" />
      <path
         style="fill:url(#linearGradient2127);fill-opacity:1;stroke:none;stroke-width:0.264583px;stroke-linecap:butt;stroke-linejoin:miter;stroke-opacity:1"
         d="m 216.20887,110.59797 c 0,0 -0.40744,2.69048 1.2688,3.42843 3.0784,1.35524 7.17258,-0.53533 7.17258,-0.53533 0,0 -3.87776,1.07633 -6.4187,-0.43534 -1.30243,-0.77485 -2.02268,-2.45776 -2.02268,-2.45776 z"
         id="path2713"
         sodipodi:nodetypes="cscsc" />
      <path
         style="fill:url(#linearGradient2127);fill-opacity:1;stroke:none;stroke-width:0.264583px;stroke-linecap:butt;stroke-linejoin:miter;stroke-opacity:1"
         d="m 225.49645,112.09304 c 0,0 1.30254,0.65116 1.27779,1.24542 -1.31309,2.62629 -5.678,3.44942 -8.32134,4.17441 l 3.253,1.09221 -1.70832,3.16766 c 0,0 3.4096,-1.96625 3.17557,-3.5321 -0.071,-0.47518 -1.23497,-0.74327 -1.23497,-0.74327 0,0 3.55394,-0.85387 4.79147,-2.07837 0.65167,-0.64481 1.48563,-1.67025 1.1211,-2.51143 -0.33019,-0.76194 -2.3543,-0.81453 -2.3543,-0.81453 z"
         id="path3033"
         sodipodi:nodetypes="cccccacaac" />
    </g>
    <path
       d="m 200.42388,101.8057 c 0.70235,0 1.24862,0.23412 1.63881,0.70235 0.46823,0.46823 0.70235,1.0145 0.70235,1.63881 v 2.19551 l -4.68232,-0.0904 v -2.1051 c 0,-0.62431 0.23412,-1.17058 0.70235,-1.63881 0.46823,-0.46823 1.0145,-0.70235 1.63881,-0.70235 z"
       id="path4199-1"
       style="font-weight:300;font-size:117.058px;font-family:Quicksand;-inkscape-font-specification:'Quicksand, Light';stroke-width:0.131165;fill:#a1a1a1;fill-opacity:1"
       sodipodi:nodetypes="scsccsss" />
  </g>
</svg>
