<?xml version="1.0" encoding="UTF-8" standalone="no"?>
<!-- Created with Inkscape (http://www.inkscape.org/) -->

<svg
   width="383.83765mm"
   height="117.14194mm"
   viewBox="0 0 383.83764 117.14194"
   version="1.1"
   id="svg5"
   inkscape:version="1.1.1 (3bf5ae0d25, 2021-09-20, custom)"
   sodipodi:docname="gust.svg"
   xmlns:inkscape="http://www.inkscape.org/namespaces/inkscape"
   xmlns:sodipodi="http://sodipodi.sourceforge.net/DTD/sodipodi-0.dtd"
   xmlns:xlink="http://www.w3.org/1999/xlink"
   xmlns="http://www.w3.org/2000/svg"
   xmlns:svg="http://www.w3.org/2000/svg">
  <sodipodi:namedview
     id="namedview7"
     pagecolor="#ffffff"
     bordercolor="#666666"
     borderopacity="1.0"
     inkscape:pageshadow="2"
     inkscape:pageopacity="0.0"
     inkscape:pagecheckerboard="0"
     inkscape:document-units="mm"
     showgrid="false"
     inkscape:zoom="0.78953187"
     inkscape:cx="879.00188"
     inkscape:cy="101.32587"
     inkscape:window-width="1920"
     inkscape:window-height="1052"
     inkscape:window-x="0"
     inkscape:window-y="0"
     inkscape:window-maximized="1"
     inkscape:current-layer="layer1"
     fit-margin-top="0"
     fit-margin-left="0"
     fit-margin-right="0"
     fit-margin-bottom="0" />
  <defs
     id="defs2">
    <linearGradient
       inkscape:collect="always"
       id="linearGradient2026">
      <stop
         style="stop-color:#50aca3;stop-opacity:1"
         offset="0"
         id="stop2022" />
      <stop
         style="stop-color:#e4eff0;stop-opacity:1"
         offset="1"
         id="stop2024" />
    </linearGradient>
    <linearGradient
       inkscape:collect="always"
       xlink:href="#linearGradient2026"
       id="linearGradient2127"
       gradientUnits="userSpaceOnUse"
       x1="214.07521"
       y1="102.35551"
       x2="227.31902"
       y2="118.78255" />
    <filter
       style="color-interpolation-filters:sRGB"
       inkscape:label="Drop Shadow"
       id="filter1953"
       x="-0.063820752"
       y="-0.050567157"
       width="1.1542335"
       height="1.122204">
      <feFlood
         flood-opacity="0.20507922473254506"
         flood-color="rgb(0,0,0)"
         result="flood"
         id="feFlood1943" />
      <feComposite
         in="flood"
         in2="SourceGraphic"
         operator="in"
         result="composite1"
         id="feComposite1945" />
      <feGaussianBlur
         in="composite1"
         stdDeviation="0.4"
         result="blur"
         id="feGaussianBlur1947" />
      <feOffset
         dx="0.4"
         dy="0.4"
         result="offset"
         id="feOffset1949" />
      <feComposite
         in="SourceGraphic"
         in2="offset"
         operator="over"
         result="composite2"
         id="feComposite1951" />
    </filter>
    <linearGradient
       inkscape:collect="always"
       xlink:href="#linearGradient2026"
       id="linearGradient2177"
       gradientUnits="userSpaceOnUse"
       x1="214.07521"
       y1="102.35551"
       x2="227.31902"
       y2="118.78255"
       gradientTransform="translate(0.23749666,0.11874833)" />
    <linearGradient
       inkscape:collect="always"
       xlink:href="#linearGradient2026"
       id="linearGradient2179"
       gradientUnits="userSpaceOnUse"
       x1="214.07521"
       y1="102.35551"
       x2="227.31902"
       y2="118.78255"
       gradientTransform="translate(-0.71248998,0.23749666)" />
    <linearGradient
       inkscape:collect="always"
       xlink:href="#linearGradient2026"
       id="linearGradient2181"
       gradientUnits="userSpaceOnUse"
       x1="214.07521"
       y1="102.35551"
       x2="227.31902"
       y2="118.78255" />
    <linearGradient
       inkscape:collect="always"
       xlink:href="#linearGradient2026"
       id="linearGradient2183"
       gradientUnits="userSpaceOnUse"
       x1="214.07521"
       y1="102.35551"
       x2="227.31902"
       y2="118.78255"
       gradientTransform="translate(-0.35624499,0.11874833)" />
  </defs>
  <g
     inkscape:label="Layer 1"
     inkscape:groupmode="layer"
     id="layer1"
     transform="translate(74.717606,-83.866241)">
    <g
       id="g2389">
      <g
         aria-label="Gust"
         id="text3717"
         style="font-weight:300;font-size:117.058px;font-family:Quicksand;-inkscape-font-specification:'Quicksand, Light';stroke-width:0.131165"
         transform="translate(-108.15519,-2.647921)">
        <path
           d="m 138.61128,181.7119 q -9.13052,0 -16.85635,-3.04351 -7.60877,-3.16056 -13.34461,-8.77935 -5.61879,-5.73584 -8.779354,-13.46167 -3.043508,-7.72582 -3.043508,-16.85635 0,-9.13052 3.043508,-16.85635 3.160564,-7.72583 8.779354,-13.34461 5.73584,-5.73584 13.34461,-8.77935 7.72583,-3.160568 16.85635,-3.160568 6.43819,0 12.40815,1.638812 5.96996,1.521756 10.65228,4.682316 0.58529,0.35118 0.8194,0.93647 0.23412,0.46823 0.23412,1.05352 0,1.17058 -0.81941,1.75587 -0.8194,0.58529 -1.40469,0.58529 -0.46824,0 -0.81941,-0.11706 -0.35117,-0.23411 -0.70235,-0.35117 -4.33114,-2.45822 -9.4817,-3.97997 -5.15055,-1.52176 -10.88639,-1.52176 -10.88639,0 -19.31457,4.91644 -8.31112,4.79938 -13.1105,13.22755 -4.68232,8.42818 -4.68232,19.31457 0,10.8864 4.68232,19.43163 4.79938,8.42817 13.1105,13.22755 8.42818,4.79938 19.31457,4.79938 5.8529,0 11.47168,-1.75587 5.73585,-1.87293 10.06699,-4.79938 l -0.46823,2.10705 v -29.2645 l 1.63881,1.52175 h -22.70925 q -0.93646,0 -1.63881,-0.70235 -0.70235,-0.70234 -0.70235,-1.63881 0,-1.05352 0.70235,-1.63881 0.70235,-0.70235 1.63881,-0.70235 h 23.4116 q 1.05352,0 1.63881,0.70235 0.70235,0.70235 0.70235,1.63881 v 29.38156 q 0,0.46823 -0.23412,1.05352 -0.23411,0.58529 -0.8194,1.05352 -5.15055,3.51174 -11.58874,5.61879 -6.32114,2.10704 -13.1105,2.10704 z"
           id="path4193"
           style="fill:#a1a1a1;fill-opacity:1" />
        <path
           d="m 225.8193,122.12938 q 1.05352,0 1.63881,0.70235 0.70235,0.70235 0.70235,1.63881 v 34.06388 q 0,11.35462 -6.43819,17.09046 -6.32113,5.61879 -16.85635,5.61879 -10.41817,0 -16.85636,-5.61879 -6.32113,-5.73584 -6.32113,-17.09046 v -34.06388 q 0,-0.93646 0.70235,-1.63881 0.70235,-0.70235 1.63881,-0.70235 1.05352,0 1.63881,0.70235 0.70235,0.70235 0.70235,1.63881 v 34.06388 q 0,8.8964 4.91644,13.57872 5.03349,4.68232 13.57873,4.68232 8.66229,0 13.57872,-4.68232 5.0335,-4.68232 5.0335,-13.57872 v -34.06388 q 0,-0.93646 0.58529,-1.63881 0.70235,-0.70235 1.75587,-0.70235 z"
           id="path4195"
           style="fill:#a1a1a1;fill-opacity:1" />
        <path
           d="m 244.31443,171.17668 q -0.81941,-1.4047 -0.81941,-2.2241 0.11706,-0.93647 0.93646,-1.52176 0.58529,-0.58529 1.52176,-0.46823 1.05352,0 1.75587,0.81941 3.04351,4.33114 7.72583,7.02348 4.79937,2.69233 11.23756,2.69233 3.86292,0 7.37466,-1.28764 3.6288,-1.28763 5.8529,-3.86291 2.34116,-2.57528 2.34116,-6.32113 0,-3.97997 -2.2241,-6.32113 -2.22411,-2.45822 -5.73585,-3.86292 -3.51174,-1.40469 -7.37465,-2.34116 -4.09703,-1.05352 -7.84289,-2.34116 -3.62879,-1.40469 -6.43819,-3.39468 -2.80939,-2.10704 -4.4482,-4.91643 -1.63881,-2.8094 -1.63881,-6.67231 0,-4.56526 2.45822,-8.19406 2.45821,-3.6288 6.90642,-5.61878 4.4482,-2.10705 10.3011,-2.10705 2.80939,0 5.96996,0.70235 3.16057,0.70235 6.32113,2.45822 3.16057,1.63881 5.8529,4.68232 0.93647,0.70235 0.81941,1.75587 0,0.93646 -0.81941,1.75587 -0.70235,0.46823 -1.52175,0.46823 -0.81941,0 -1.4047,-0.70235 -3.04351,-3.39468 -7.14054,-5.03349 -3.97997,-1.63881 -8.54523,-1.63881 -3.86291,0 -7.2576,1.28763 -3.27762,1.28764 -5.38466,3.86292 -2.10705,2.45822 -2.10705,6.32113 0.23412,3.6288 2.45822,5.96996 2.34116,2.34116 6.08702,3.86291 3.86291,1.52176 8.66229,2.80939 3.86291,0.93647 7.14054,2.22411 3.39468,1.17058 5.8529,3.0435 2.57527,1.87293 3.97997,4.68232 1.52175,2.8094 1.52175,7.02348 0,4.91644 -2.69233,8.54524 -2.57528,3.51174 -7.2576,5.50172 -4.56526,1.87293 -10.53522,1.87293 -6.08701,0 -11.7058,-2.45822 -5.61878,-2.45822 -10.18404,-8.077 z"
           id="path4197"
           style="fill:#a1a1a1;fill-opacity:1" />
        <path
           d="m 296.63914,121.66115 h 27.15746 c 0.62431,0 1.13156,0.23412 1.52175,0.70235 0.46823,0.46823 0.70235,0.97548 0.70235,1.52175 0,0.62431 -0.23412,1.17058 -0.70235,1.63881 -0.39019,0.39019 -0.89744,0.58529 -1.52175,0.58529 h -27.15746 c -0.54627,0 -1.05352,-0.23412 -1.52175,-0.70235 -0.46823,-0.46823 -0.70235,-0.97548 -0.70235,-1.52175 0,-0.62431 0.23412,-1.13156 0.70235,-1.52175 0.46823,-0.46823 0.97548,-0.70235 1.52175,-0.70235 z m 11.93992,-17.20753 c 0.70235,0 1.24862,0.23412 1.63881,0.70235 0.46823,0.46823 0.70235,1.0145 0.70235,1.63881 V 167.782 l -2.64383,10.76287 -2.03843,1.676 v -12.20475 -61.22133 c 0,-0.62431 0.23412,-1.17058 0.70235,-1.63881 0.46823,-0.46823 1.0145,-0.70235 1.63881,-0.70235 z"
           id="path4199"
           sodipodi:nodetypes="sscsssssscsscsccccssss"
           style="fill:#a1a1a1;fill-opacity:1" />
      </g>
      <g
         id="g9460"
         style="fill:url(#linearGradient2127);fill-opacity:1;filter:url(#filter1953)"
         transform="matrix(4.4562032,0,0,4.4562032,-786.97587,-358.6123)">
        <path
           style="fill:url(#linearGradient2177);fill-opacity:1;stroke:none;stroke-width:0.264583px;stroke-linecap:butt;stroke-linejoin:miter;stroke-opacity:1"
           d="m 226.57419,103.74232 c -2.42648,-1.20663 -9.10724,-1.22246 -11.53993,0.72371 -1.96693,1.57357 1.87783,5.07995 7.35195,4.34213 -3.12314,-0.4303 -6.55724,-2.24043 -5.32101,-3.49584 1.51141,-1.53486 6.33729,-1.65185 9.50899,-1.57 z"
           id="path869"
           sodipodi:nodetypes="cscsc" />
        <path
           style="fill:url(#linearGradient2179);fill-opacity:1;stroke:none;stroke-width:0.264583px;stroke-linecap:butt;stroke-linejoin:miter;stroke-opacity:1"
           d="m 217.1565,110.46014 c 2.42648,1.20663 9.58223,1.10371 12.01492,-0.84246 1.96693,-1.57357 -4.01768,-5.23823 -9.25192,-4.57962 3.05862,0.38905 7.87488,2.14308 6.74599,3.49583 -0.86438,1.03577 -5.03787,2.31909 -9.50899,1.92625 z"
           id="path869-0"
           sodipodi:nodetypes="cscsc" />
        <path
           style="fill:url(#linearGradient2181);fill-opacity:1;stroke:none;stroke-width:0.264583px;stroke-linecap:butt;stroke-linejoin:miter;stroke-opacity:1"
           d="m 216.20887,110.59797 c 0,0 -0.16994,2.80923 1.5063,3.54718 3.0784,1.35524 6.93508,-0.65408 6.93508,-0.65408 0,0 -3.86608,0.9349 -6.42804,-0.54087 -1.30243,-0.75024 -1.5174,-0.97087 -2.01334,-2.35223 z"
           id="path2713"
           sodipodi:nodetypes="cscsc" />
        <path
           style="fill:url(#linearGradient2183);fill-opacity:1;stroke:none;stroke-width:0.264583px;stroke-linecap:butt;stroke-linejoin:miter;stroke-opacity:1"
           d="m 225.1402,112.21179 c 1.21715,0.61099 1.02606,1.70053 0.52067,2.30452 -1.82834,2.18504 -5.15375,2.82063 -7.56422,3.47155 0,0 2.44983,0.0781 2.81386,1.00519 0.39798,1.01355 -1.50668,2.89844 -1.50668,2.89844 0,0 3.23724,-1.74263 3.29432,-3.2946 0.012,-0.32699 -0.64123,-0.74327 -0.64123,-0.74327 0,0 2.95882,-0.98875 4.32168,-2.01314 1.14129,-0.85787 1.40607,-1.63464 1.22384,-2.49151 -0.18223,-0.85688 -1.60354,-1.09385 -2.46224,-1.13718 z"
           id="path3033"
           sodipodi:nodetypes="cscacacszc" />
      </g>
      <path
         d="m 200.42388,101.8057 c 0.70235,0 1.24862,0.23412 1.63881,0.70235 0.46823,0.46823 0.70235,1.0145 0.70235,1.63881 v 20.71635 l -4.68232,-0.0904 v -20.62594 c 0,-0.62431 0.23412,-1.17058 0.70235,-1.63881 0.46823,-0.46823 1.0145,-0.70235 1.63881,-0.70235 z"
         id="path4199-1"
         style="font-weight:300;font-size:117.058px;font-family:Quicksand;-inkscape-font-specification:'Quicksand, Light';fill:#a1a1a1;fill-opacity:1;stroke-width:0.131165"
         sodipodi:nodetypes="scsccssss" />
    </g>
  </g>
</svg>
