<?xml version="1.0" encoding="UTF-8" standalone="no"?>
<!-- Created with Inkscape (http://www.inkscape.org/) -->

<svg
   width="383.83765mm"
   height="117.14194mm"
   viewBox="0 0 383.83764 117.14194"
   version="1.1"
   id="svg5"
   inkscape:version="1.2 (dc2aedaf03, 2022-05-15)"
   sodipodi:docname="gust.svg"
   xmlns:inkscape="http://www.inkscape.org/namespaces/inkscape"
   xmlns:sodipodi="http://sodipodi.sourceforge.net/DTD/sodipodi-0.dtd"
   xmlns:xlink="http://www.w3.org/1999/xlink"
   xmlns="http://www.w3.org/2000/svg"
   xmlns:svg="http://www.w3.org/2000/svg">
  <sodipodi:namedview
     id="namedview7"
     pagecolor="#ffffff"
     bordercolor="#666666"
     borderopacity="1.0"
     inkscape:pageshadow="2"
     inkscape:pageopacity="0.0"
     inkscape:pagecheckerboard="0"
     inkscape:document-units="mm"
     showgrid="false"
     inkscape:zoom="0.55828334"
     inkscape:cx="477.35618"
     inkscape:cy="189.86775"
     inkscape:window-width="1920"
     inkscape:window-height="1009"
     inkscape:window-x="1912"
     inkscape:window-y="-8"
     inkscape:window-maximized="1"
     inkscape:current-layer="g2389"
     fit-margin-top="0"
     fit-margin-left="0"
     fit-margin-right="0"
     fit-margin-bottom="0"
     inkscape:showpageshadow="2"
     inkscape:deskcolor="#d1d1d1" />
  <defs
     id="defs2">
    <linearGradient
       inkscape:collect="always"
       id="linearGradient4842">
      <stop
         style="stop-color:#858585;stop-opacity:1;"
         offset="0"
         id="stop4838" />
      <stop
         style="stop-color:#9a9a9a;stop-opacity:1;"
         offset="1"
         id="stop4840" />
    </linearGradient>
    <linearGradient
       inkscape:collect="always"
       id="linearGradient2026">
      <stop
         style="stop-color:#50aca3;stop-opacity:1"
         offset="0"
         id="stop2022" />
      <stop
         style="stop-color:#e4eff0;stop-opacity:1"
         offset="1"
         id="stop2024" />
    </linearGradient>
    <linearGradient
       inkscape:collect="always"
       xlink:href="#linearGradient2026"
       id="linearGradient2127"
       gradientUnits="userSpaceOnUse"
       x1="214.07521"
       y1="102.35551"
       x2="227.31902"
       y2="118.78255" />
    <filter
       style="color-interpolation-filters:sRGB"
       inkscape:label="Drop Shadow"
       id="filter1953"
       x="-0.063820752"
       y="-0.050567157"
       width="1.1542335"
       height="1.122204">
      <feFlood
         flood-opacity="0.20507922473254506"
         flood-color="rgb(0,0,0)"
         result="flood"
         id="feFlood1943" />
      <feComposite
         in="flood"
         in2="SourceGraphic"
         operator="in"
         result="composite1"
         id="feComposite1945" />
      <feGaussianBlur
         in="composite1"
         stdDeviation="0.4"
         result="blur"
         id="feGaussianBlur1947" />
      <feOffset
         dx="0.4"
         dy="0.4"
         result="offset"
         id="feOffset1949" />
      <feComposite
         in="SourceGraphic"
         in2="offset"
         operator="over"
         result="composite2"
         id="feComposite1951" />
    </filter>
    <linearGradient
       inkscape:collect="always"
       xlink:href="#linearGradient2026"
       id="linearGradient2177"
       gradientUnits="userSpaceOnUse"
       x1="214.07521"
       y1="102.35551"
       x2="227.31902"
       y2="118.78255"
       gradientTransform="translate(0.23749666,0.11874833)" />
    <linearGradient
       inkscape:collect="always"
       xlink:href="#linearGradient2026"
       id="linearGradient2179"
       gradientUnits="userSpaceOnUse"
       x1="214.07521"
       y1="102.35551"
       x2="227.31902"
       y2="118.78255"
       gradientTransform="translate(-0.71248998,0.23749666)" />
    <linearGradient
       inkscape:collect="always"
       xlink:href="#linearGradient2026"
       id="linearGradient2181"
       gradientUnits="userSpaceOnUse"
       x1="214.07521"
       y1="102.35551"
       x2="227.31902"
       y2="118.78255"
       gradientTransform="translate(0,-0.29246609)" />
    <linearGradient
       inkscape:collect="always"
       xlink:href="#linearGradient2026"
       id="linearGradient2183"
       gradientUnits="userSpaceOnUse"
       x1="214.07521"
       y1="102.35551"
       x2="227.31902"
       y2="118.78255"
       gradientTransform="translate(-0.35624499,-0.97135256)" />
    <linearGradient
       inkscape:collect="always"
       xlink:href="#linearGradient4842"
       id="linearGradient4844"
       x1="200.99199"
       y1="165.98141"
       x2="200.34172"
       y2="168.40826"
       gradientUnits="userSpaceOnUse" />
    <filter
       style="color-interpolation-filters:sRGB;"
       inkscape:label="Drop Shadow"
       id="filter8155"
       x="-22.599169"
       y="-4.9010584"
       width="46.198339"
       height="10.802117">
      <feFlood
         flood-opacity="1"
         flood-color="rgb(0,0,0)"
         result="flood"
         id="feFlood8145" />
      <feComposite
         in="flood"
         in2="SourceGraphic"
         operator="in"
         result="composite1"
         id="feComposite8147" />
      <feGaussianBlur
         in="composite1"
         stdDeviation="7.1"
         result="blur"
         id="feGaussianBlur8149" />
      <feOffset
         dx="0"
         dy="0"
         result="offset"
         id="feOffset8151" />
      <feComposite
         in="SourceGraphic"
         in2="offset"
         operator="over"
         result="composite2"
         id="feComposite8153" />
    </filter>
    <filter
       style="color-interpolation-filters:sRGB;"
       inkscape:label="Drop Shadow"
       id="filter9864"
       x="-0.95427272"
       y="-2.6706884"
       width="2.9085454"
       height="6.3413768">
      <feFlood
         flood-opacity="1"
         flood-color="rgb(0,0,0)"
         result="flood"
         id="feFlood9854" />
      <feComposite
         in="flood"
         in2="SourceGraphic"
         operator="in"
         result="composite1"
         id="feComposite9856" />
      <feGaussianBlur
         in="composite1"
         stdDeviation="4.8"
         result="blur"
         id="feGaussianBlur9858" />
      <feOffset
         dx="0"
         dy="0"
         result="offset"
         id="feOffset9860" />
      <feComposite
         in="offset"
         in2="offset"
         operator="atop"
         result="composite2"
         id="feComposite9862" />
    </filter>
    <filter
       style="color-interpolation-filters:sRGB;"
       inkscape:label="Drop Shadow"
       id="filter11530"
       x="-0.45648706"
       y="-2.8520326"
       width="1.9129741"
       height="6.7040652">
      <feFlood
         flood-opacity="0.866667"
         flood-color="rgb(0,0,0)"
         result="flood"
         id="feFlood11520" />
      <feComposite
         in="flood"
         in2="SourceGraphic"
         operator="in"
         result="composite1"
         id="feComposite11522" />
      <feGaussianBlur
         in="composite1"
         stdDeviation="2.1"
         result="blur"
         id="feGaussianBlur11524" />
      <feOffset
         dx="0"
         dy="0"
         result="offset"
         id="feOffset11526" />
      <feComposite
         in="offset"
         in2="offset"
         operator="atop"
         result="composite2"
         id="feComposite11528" />
    </filter>
    <filter
       style="color-interpolation-filters:sRGB"
       inkscape:label="Drop Shadow"
       id="filter11530-5"
       x="-0.39318622"
       y="-2.852036"
       width="1.7863724"
       height="6.704072">
      <feFlood
         flood-opacity="0.866667"
         flood-color="rgb(0,0,0)"
         result="flood"
         id="feFlood11520-1" />
      <feComposite
         in="flood"
         in2="SourceGraphic"
         operator="in"
         result="composite1"
         id="feComposite11522-1" />
      <feGaussianBlur
         in="composite1"
         stdDeviation="2.1"
         result="blur"
         id="feGaussianBlur11524-8" />
      <feOffset
         dx="0"
         dy="0"
         result="offset"
         id="feOffset11526-8" />
      <feComposite
         in="offset"
         in2="offset"
         operator="atop"
         result="composite2"
         id="feComposite11528-6" />
    </filter>
  </defs>
  <g
     inkscape:label="Layer 1"
     inkscape:groupmode="layer"
     id="layer1"
     transform="translate(74.717606,-83.866241)">
    <g
       id="g2389">
      <g
         aria-label="Gust"
         id="text3717"
         style="font-weight:300;font-size:117.058px;font-family:Quicksand;-inkscape-font-specification:'Quicksand, Light';stroke-width:0.131165"
         transform="translate(-108.15519,-2.647921)">
        <g
           id="path4193">
          <path
             id="path2175"
             style="color:#000000;-inkscape-font-specification:'Quicksand, Light';fill:#a1a1a1;stroke-linecap:round;paint-order:stroke fill markers"
             d="M 138.61101 94.814431 C 132.22616 94.814491 126.25527 95.925106 120.77334 98.166164 C 115.38925 100.3213 110.6275 103.45494 106.56077 107.52167 C 102.56446 111.51795 99.439515 116.27681 97.210952 121.72442 L 97.203201 121.74044 L 97.197 121.75594 C 95.039216 127.23338 93.97239 133.19275 93.97239 139.57036 C 93.97239 145.94797 95.039216 151.90938 97.197 157.38684 L 97.203201 157.40234 L 97.210952 157.41784 C 99.437762 162.86116 102.55605 167.65067 106.54113 171.71878 L 106.56077 171.7379 L 106.57989 171.75754 C 110.64165 175.7364 115.3871 178.85525 120.75163 181.08358 L 120.77334 181.09392 L 120.79659 181.10167 C 126.27405 183.25947 132.23341 184.32835 138.61101 184.32835 L 141.22635 184.32835 L 141.22635 184.12112 C 145.09113 183.89646 148.88548 183.3055 152.53522 182.09024 L 152.53884 182.08817 C 157.04158 180.61414 161.13258 178.6359 164.78306 176.14693 L 164.86729 176.09009 L 164.94532 176.02963 C 165.6178 175.49165 166.21278 174.76944 166.55866 173.90469 C 166.80424 173.29093 166.98034 172.62683 166.98034 171.87898 L 166.98034 161.05535 L 157.06621 162.91622 L 157.06621 169.22901 C 154.76416 170.59729 152.23098 171.81941 149.28736 172.78176 C 145.79332 173.87197 142.24649 174.41422 138.61153 174.41422 C 131.74432 174.41422 125.80012 172.9197 120.60539 169.96488 L 120.59971 169.96126 C 120.59671 169.96026 120.59444 169.95913 120.59144 169.95713 C 115.45011 166.98512 111.45223 162.95496 108.47228 157.73049 C 105.58121 152.44787 104.11906 146.44631 104.11906 139.57036 C 104.11906 132.6918 105.58268 126.73604 108.46866 121.53735 C 111.45174 116.30444 115.4549 112.26737 120.60539 109.29313 L 120.60901 109.29107 L 120.61521 109.289 C 125.81062 106.25834 131.74718 104.72855 138.61101 104.72855 C 142.20359 104.72855 145.57493 105.20267 148.75561 106.14242 C 152.01335 107.10493 154.98553 108.35497 157.68736 109.88845 L 157.91009 110.01557 L 158.15245 110.09567 C 158.13845 110.09067 158.16378 110.09779 158.23048 110.14269 L 158.52142 110.33596 L 158.85318 110.44758 C 159.41841 110.63604 159.97166 110.69718 160.50166 110.69718 C 161.76371 110.69718 162.63959 110.18628 163.42552 109.6249 C 164.64286 108.75536 165.33961 107.13311 165.33961 105.74245 C 165.33961 105.04632 165.16891 104.31622 164.85902 103.64645 C 164.48464 102.77174 163.80951 101.99984 163.03691 101.52927 C 159.67742 99.277941 155.88056 97.612444 151.68566 96.54094 C 147.48213 95.389501 143.11642 94.814475 138.61153 94.814431 L 138.61101 94.814431 z M 138.61153 137.54154 C 137.3794 137.54154 136.11636 138.1067 135.23809 138.9337 C 134.22687 139.82444 133.65421 141.24683 133.65421 142.49834 C 133.65421 143.77653 134.24364 145.10729 135.12285 145.9865 C 136.00206 146.86571 137.33333 147.45359 138.61153 147.45359 L 157.06621 147.51199 L 157.06621 152.6817 L 166.98034 150.82083 L 166.98034 142.49834 C 166.98034 141.26479 166.41471 139.99965 165.58611 139.12129 C 164.69524 138.11136 163.27419 137.54154 162.02353 137.54154 L 138.61153 137.54154 z M 166.98034 153.1256 L 157.06621 154.98647 L 157.06621 160.613 L 166.98034 158.75213 L 166.98034 153.1256 z " />
        </g>
        <g
           id="path4195">
          <path
             id="path2181"
             style="color:#000000;-inkscape-font-specification:'Quicksand, Light';fill:#a1a1a1;stroke-linecap:round;paint-order:stroke fill markers"
             d="M 184.02943 119.5137 C 182.75124 119.5137 181.42048 120.10313 180.54127 120.98234 C 179.66205 121.86156 179.07211 123.19232 179.07211 124.4705 L 179.07211 148.5512 L 188.98623 146.69033 L 188.98623 124.4705 C 188.98623 123.23838 188.42108 121.97585 187.59407 121.09758 C 186.70333 120.08635 185.2809 119.5137 184.02943 119.5137 z M 225.81861 119.5137 C 224.53504 119.5137 223.14528 120.05175 222.21469 120.98234 L 222.13098 121.06657 L 222.05449 121.15804 C 221.29833 122.06546 220.86335 123.3013 220.86335 124.4705 L 220.86335 140.70724 L 230.77541 138.84688 L 230.77541 124.4705 C 230.77541 123.23838 230.20974 121.97585 229.38273 121.09758 C 228.492 120.08635 227.07009 119.5137 225.81861 119.5137 z M 230.77541 141.15165 L 220.86335 143.01201 L 220.86335 148.63854 L 230.77541 146.77818 L 230.77541 141.15165 z M 188.98623 148.9951 L 179.07211 150.85597 L 179.07211 156.4825 L 188.98623 154.62163 L 188.98623 148.9951 z M 230.77541 149.08192 L 220.86335 150.94227 L 220.86335 158.53509 C 220.86335 163.97272 219.41493 167.63853 216.66413 170.19743 L 216.65224 170.20879 L 216.64087 170.21913 C 213.91877 172.81162 210.16896 174.18013 204.86536 174.18013 C 199.65514 174.18013 195.89783 172.81942 193.08417 170.20931 C 190.41144 167.65861 188.98623 163.97857 188.98623 158.53561 L 188.98623 156.92537 L 179.07417 158.78572 C 179.12229 166.72606 181.4525 173.20722 186.25203 177.56235 L 186.27167 177.57785 L 186.28924 177.59594 C 191.10792 181.80135 197.44974 183.85913 204.86536 183.85912 C 212.35382 183.85912 218.70571 181.80512 223.45906 177.57992 L 223.46113 177.57785 L 223.46319 177.57785 C 228.39536 173.18376 230.77541 166.59914 230.77541 158.53509 L 230.77541 149.08192 z M 220.24789 174.00805 L 220.2267 174.02717 C 220.2297 174.02417 220.23145 174.02035 220.23445 174.01735 C 220.23828 174.01352 220.24416 174.01172 220.24789 174.00805 z " />
        </g>
        <g
           id="path4197">
          <path
             id="path2197"
             style="color:#000000;-inkscape-font-specification:'Quicksand, Light';fill:#a1a1a1;stroke-linecap:round;paint-order:stroke fill markers"
             d="M 266.20529 117.64043 C 262.00165 117.64043 258.17381 118.40486 254.81425 119.99015 C 251.4827 121.48527 248.75232 123.68079 246.83179 126.51585 C 244.90736 129.3567 243.92396 132.66278 243.92396 136.17573 C 243.92396 136.24355 243.92587 136.31073 243.92654 136.3783 L 253.73887 134.53655 C 253.94305 133.30258 254.39414 132.35639 255.07987 131.55637 L 255.09951 131.53519 L 255.11708 131.51193 C 256.23296 130.14807 257.61905 129.1444 259.42172 128.43357 C 261.37295 127.69558 263.45724 127.32046 265.73607 127.32046 C 268.46659 127.32046 270.95721 127.80323 273.28496 128.76171 L 273.29685 128.76791 L 273.31028 128.77153 C 274.35342 129.18879 275.33098 129.70013 276.25067 130.31149 L 287.47376 128.20464 C 287.19866 127.43614 286.73922 126.72968 286.17513 126.22233 C 284.23776 124.06297 282.08374 122.33851 279.72074 121.10947 C 277.43388 119.84392 275.10436 118.93116 272.74236 118.40627 C 270.47511 117.90244 268.29565 117.64093 266.20477 117.64094 L 266.20529 117.64043 z M 275.25176 123.91395 L 275.2776 123.92583 C 275.2756 123.92483 275.27233 123.92483 275.26933 123.92376 C 275.26333 123.92076 275.25806 123.91695 275.25176 123.91395 z M 251.1075 128.15245 C 251.1015 128.15945 251.10025 128.17037 251.09355 128.17777 C 251.08655 128.18577 251.07699 128.19117 251.07029 128.19947 L 251.1075 128.15245 z M 287.7032 130.46703 L 278.56629 132.18166 C 278.87592 132.48081 279.17908 132.79341 279.47476 133.1232 L 279.41223 133.05086 C 280.18671 133.98024 281.53243 134.69572 282.82598 134.69572 C 283.87044 134.69572 284.9401 134.35978 285.79892 133.78725 L 286.01338 133.64462 L 286.19735 133.46117 C 286.961 132.69751 287.54325 131.62336 287.7032 130.46703 z M 253.69804 136.84959 L 244.08571 138.65362 C 244.34085 140.56837 244.90672 142.35402 245.80395 143.95768 L 257.16966 141.82396 C 256.47522 141.35241 255.85953 140.85187 255.32637 140.32225 C 254.45182 139.39415 253.91805 138.31223 253.69804 136.84959 z M 260.37825 143.52619 L 247.15219 146.0082 C 248.24261 147.44111 249.55232 148.72917 251.05686 149.85758 L 251.08373 149.87877 L 251.11319 149.89841 C 253.18267 151.3643 255.52392 152.59494 258.11896 153.59947 L 258.16599 153.61704 L 258.21301 153.63255 C 260.7801 154.51497 263.46187 155.31496 266.25593 156.03343 L 266.2735 156.03912 L 266.29107 156.04325 C 268.7517 156.63977 271.09059 157.38347 273.3108 158.27154 C 275.34026 159.08333 276.88841 160.14418 278.07795 161.45894 L 278.09965 161.48271 L 278.12136 161.50597 C 279.09436 162.53018 279.62514 163.85948 279.62514 166.02559 C 279.62514 167.97793 279.10097 169.33829 277.96478 170.5881 L 277.94152 170.61342 L 277.91982 170.63874 C 276.75607 171.98625 275.23181 173.01509 273.17179 173.74605 L 273.16042 173.75018 L 273.14647 173.75431 C 271.09634 174.50602 268.95658 174.88293 266.67193 174.88293 C 262.74615 174.88293 259.48259 174.07533 256.71905 172.52597 C 256.71805 172.52528 256.71591 172.5249 256.71491 172.5239 C 253.91807 170.91118 251.65711 168.84985 249.8497 166.27777 L 249.77735 166.17597 L 249.69518 166.08036 C 248.84028 165.08296 247.44306 164.43533 246.10936 164.38486 C 244.97181 164.29056 243.64802 164.67246 242.74005 165.49074 C 241.80008 166.24607 241.05275 167.41005 240.90037 168.62905 L 240.87867 168.78924 L 240.87867 168.95357 C 240.87867 170.37168 241.39704 171.36678 242.05482 172.49444 L 242.15611 172.67014 L 242.2853 172.82621 C 245.54224 176.83474 249.27103 179.82263 253.44896 181.65047 C 257.51256 183.4283 261.7952 184.32835 266.20529 184.32835 C 270.45875 184.32835 274.31836 183.65877 277.73223 182.25819 L 277.74825 182.25199 L 277.76169 182.2463 C 281.23223 180.77133 284.0774 178.64714 286.10175 175.88855 C 288.22993 173.0168 289.30465 169.545 289.30465 165.79304 C 289.30465 162.68159 288.74276 159.9032 287.47841 157.55479 C 286.36477 155.34669 284.75811 153.45672 282.74588 151.9882 C 280.87151 150.56494 278.68653 149.43932 276.23052 148.58789 C 273.95432 147.69694 271.50357 146.93369 268.87128 146.29294 L 268.86094 146.29036 C 265.75156 145.45578 262.96707 144.54994 260.50796 143.582 C 260.46343 143.56388 260.42237 143.54446 260.37825 143.52619 z M 281.91492 157.90567 L 281.9573 157.95115 C 281.9483 157.94115 281.93468 157.93572 281.92578 157.92582 C 281.92017 157.92022 281.91959 157.91168 281.91492 157.90567 z M 245.56831 169.28534 C 245.62319 169.36344 245.70023 169.4208 245.75589 169.49824 C 245.74989 169.49879 245.71592 169.47629 245.72282 169.48429 L 245.56831 169.28534 z M 281.87875 174.05662 L 281.83586 174.10727 C 281.84286 174.09927 281.84603 174.08849 281.85343 174.08039 C 281.86143 174.07139 281.87125 174.06532 281.87875 174.05662 z " />
        </g>
        <g
           id="path4199">
          <path
             style="color:#000000;-inkscape-font-specification:'Quicksand, Light';fill:#a1a1a1;stroke-width:5.231;-inkscape-stroke:none"
             d="m 296.63914,121.66115 h 27.15746 c 0.62431,0 1.13156,0.23412 1.52175,0.70235 0.46823,0.46823 0.70235,0.97548 0.70235,1.52175 0,0.62431 -0.23412,1.17058 -0.70235,1.63881 -0.39019,0.39019 -0.89744,0.58529 -1.52175,0.58529 h -27.15746 c -0.54627,0 -1.05352,-0.23412 -1.52175,-0.70235 -0.46823,-0.46823 -0.70235,-0.97548 -0.70235,-1.52175 0,-0.62431 0.23412,-1.13156 0.70235,-1.52175 0.46823,-0.46823 0.97548,-0.70235 1.52175,-0.70235 z m 11.93992,-17.20753 c 0.70235,0 1.24862,0.23412 1.63881,0.70235 0.46823,0.46823 0.70235,1.0145 0.70235,1.63881 V 167.782 l -1.28907,6.92873 -0.52539,1.70149 -0.3797,-3.77412 -2.4881,-4.62198 v -61.22133 c 0,-0.62431 0.23412,-1.17058 0.70235,-1.63881 0.46823,-0.46823 1.0145,-0.70235 1.63881,-0.70235 z"
             id="path2209" />
          <path
             id="path2211"
             style="color:#000000;-inkscape-font-specification:'Quicksand, Light';fill:#9a9a9a;fill-opacity:1;stroke:none"
             d="m 308.5779,101.83777 c -1.27761,5.8e-4 -2.60733,0.58987 -3.4861,1.46865 -0.87921,0.87921 -1.46864,2.21049 -1.46864,3.48867 v 12.2499 h -9.63042 c -1.24418,0 -2.42893,0.60671 -3.25562,1.38855 -0.953,0.8372 -1.58388,2.20543 -1.58388,3.45147 0,1.29356 0.64081,2.54301 1.46865,3.37085 0.48514,0.48515 1.11551,0.9051 1.81436,1.17047 0.49362,0.18745 1.02101,0.29818 1.55649,0.29818 h 9.63042 v 39.95105 l 0.0374,9.20326 7.94503,-0.69526 1.92092,-1.7621 0.009,-7.39806 v -39.29889 h 8.6744 c 1.16922,0 2.48749,-0.46797 3.37086,-1.35134 0.8792,-0.87921 1.46864,-2.20997 1.46864,-3.48816 0,-0.6554 -0.17128,-1.2929 -0.44493,-1.87172 -0.24585,-0.52 -0.57362,-0.9932 -0.94362,-1.38441 -0.83719,-0.95301 -2.20491,-1.58389 -3.45095,-1.58389 h -8.6744 v -12.2499 c 0,-1.23212 -0.56568,-2.49516 -1.39268,-3.37343 -0.79179,-0.8989 -1.99541,-1.38363 -3.13676,-1.4919 -0.14201,-0.0135 -0.28739,-0.0919 -0.42582,-0.092 z"
             sodipodi:nodetypes="ssscscsssscccccccsssscscscsss" />
        </g>
      </g>
      <g
         id="g9460"
         style="fill:url(#linearGradient2127);fill-opacity:1;filter:url(#filter1953)"
         transform="matrix(4.4562032,0,0,4.4562032,-786.97587,-358.6123)">
        <path
           style="fill:url(#linearGradient2177);fill-opacity:1;stroke:none;stroke-width:0.264583px;stroke-linecap:butt;stroke-linejoin:miter;stroke-opacity:1"
           d="m 226.57419,103.74232 c -2.42648,-1.20663 -9.10724,-1.22246 -11.53993,0.72371 -1.96693,1.57357 1.87783,5.07995 7.35195,4.34213 -3.12314,-0.4303 -6.55724,-2.24043 -5.32101,-3.49584 1.51141,-1.53486 6.33729,-1.65185 9.50899,-1.57 z"
           id="path869"
           sodipodi:nodetypes="cscsc" />
        <path
           style="fill:url(#linearGradient2179);fill-opacity:1;stroke:none;stroke-width:0.264583px;stroke-linecap:butt;stroke-linejoin:miter;stroke-opacity:1"
           d="m 217.1565,110.46014 c 2.42648,1.20663 9.58223,1.10371 12.01492,-0.84246 1.96693,-1.57357 -4.01768,-5.23823 -9.25192,-4.57962 3.05862,0.38905 7.87488,2.14308 6.74599,3.49583 -0.86438,1.03577 -5.03787,2.31909 -9.50899,1.92625 z"
           id="path869-0"
           sodipodi:nodetypes="cscsc" />
        <path
           style="fill:url(#linearGradient2181);fill-opacity:1;stroke:none;stroke-width:0.264583px;stroke-linecap:butt;stroke-linejoin:miter;stroke-opacity:1"
           d="m 216.20887,110.3055 c 0,0 -0.16994,2.80923 1.5063,3.54718 3.0784,1.35524 6.93508,-0.65408 6.93508,-0.65408 0,0 -3.86608,0.9349 -6.42804,-0.54087 -1.30243,-0.75024 -1.5174,-0.97087 -2.01334,-2.35223 z"
           id="path2713"
           sodipodi:nodetypes="cscsc" />
        <path
           style="fill:url(#linearGradient2183);fill-opacity:1;stroke:none;stroke-width:0.264583px;stroke-linecap:butt;stroke-linejoin:miter;stroke-opacity:1"
           d="m 224.71479,111.81297 c 1.21715,0.61099 1.53406,1.46405 0.98124,2.02496 -2.5728,2.61044 -5.18891,2.40891 -7.59938,3.05983 0,0 4.42526,0.084 4.61303,1.71355 0.15131,1.31314 -3.30585,2.19008 -3.30585,2.19008 0,0 4.16821,-0.29256 4.6267,-1.8948 0.22104,-0.77241 -1.40958,-1.95507 -1.40958,-1.95507 0,0 2.35493,-0.79123 3.71779,-1.81562 1.14129,-0.85787 1.3263,-1.42193 1.14407,-2.2788 -0.39305,-0.9301 -1.8193,-1.04134 -2.76802,-1.04413 z"
           id="path3033"
           sodipodi:nodetypes="cscacacscc" />
      </g>
      <path
         d="m 196.98117,100.28085 -1.77721,4.60969 c 4.71312,0.23896 12.90852,0.3764 10.65739,-1.89945 z"
         style="color:#000000;-inkscape-font-specification:'Quicksand, Light';fill:#9a9a9a;fill-opacity:0.43829787;stroke:none;filter:url(#filter11530)"
         id="path11903"
         sodipodi:nodetypes="cccc" />
      <g
         id="path4199-1">
        <path
           style="color:#000000;-inkscape-font-specification:'Quicksand, Light';fill:url(#linearGradient4844);fill-opacity:1;stroke:none"
           d="m 197.79288,180.93298 c -0.31997,-0.16521 -0.61641,-0.41637 -0.85733,-0.65729 -0.87921,-0.87921 -1.46875,-2.21009 -1.46875,-3.48828 v -6.78724 c 0.0137,-2.86393 3.80144,-5.0942 6.39828,-4.00392 1.97244,0.82813 3.46688,2.50088 3.51578,3.81251 v 6.97865 c 0,1.23217 -0.56553,2.49477 -1.39258,3.37304 -0.89073,1.01123 -2.26657,1.50667 -3.56445,1.58399 -0.91612,0.0546 -1.81549,-0.39041 -2.63095,-0.81146 z m -0.85733,-0.65729 c -0.87921,-0.87921 -1.46875,-2.21009 -1.46875,-3.48828 v -12.81495 c 6.37111,-0.0403 9.88862,6.20432 9.91406,12.81495 0,1.23217 -0.56553,2.49477 -1.39258,3.37304 -2.10193,2.02363 -5.37119,1.72134 -7.05273,0.11524 z"
           id="path2205"
           sodipodi:nodetypes="asscscscaacscccc" />
      </g>
      <g
         id="path2050" />
      <g
         id="path2050-0">
        <path
           style="color:#000000;fill:#ffffff;stroke-width:2.265;-inkscape-stroke:none"
           d="M 24.843793,163.63388 224.71101,126.12083"
           id="path2227" />
      </g>
      <path
         style="color:#000000;-inkscape-font-specification:'Quicksand, Light';fill:#9a9a9a;fill-opacity:1;stroke:none;filter:url(#filter11530)"
         d="m 195.0225,109.26442 v 0.55173 c 4.71312,0.23896 14.74497,2.47943 12.49384,0.20358 z"
         id="path2205-1-1"
         sodipodi:nodetypes="cccc" />
      <path
         style="color:#000000;-inkscape-font-specification:'Quicksand, Light';fill:#9a9a9a;fill-opacity:1;stroke:none"
         d="m 197.79288,100.00091 c -0.29837,0.19121 -0.61641,0.41637 -0.85733,0.65729 -0.87921,0.87921 -1.46875,2.21009 -1.46875,3.48828 v 17.89974 l 9.91406,0.19141 v -18.09115 c 0,-1.23217 -0.56553,-2.49477 -1.39258,-3.37304 -0.89073,-1.011226 -2.31295,-1.583987 -3.56445,-1.583987 -0.94912,0.03381 -1.83979,0.244536 -2.63095,0.811457 z m 0,0 c -0.29837,0.19121 -0.61641,0.41637 -0.85733,0.65729 -0.87921,0.87921 -1.46875,2.21009 -1.46875,3.48828 v 17.89974 l 9.91406,0.19141 v -18.09115 c 0,-1.23217 -0.56553,-2.49477 -1.39258,-3.37304 -0.89073,-1.011226 -2.31295,-1.583987 -3.56445,-1.583987 -0.87175,0.294922 -1.7592,0.516539 -2.63095,0.811457 z m 0,0 c -0.29837,0.19121 -0.61641,0.41637 -0.85733,0.65729 -0.87921,0.87921 -1.46875,2.21009 -1.46875,3.48828 v 17.89974 l 9.91406,0.19141 v -18.09115 c 0,-1.23217 -0.56553,-2.49477 -1.39258,-3.37304 -0.89073,-1.011226 -2.31295,-1.583987 -3.56445,-1.583987 -0.87175,0.294922 -1.7592,0.516539 -2.63095,0.811457 z"
         id="path2205-1"
         sodipodi:nodetypes="cssccsccccssccsccccssccsccc" />
    </g>
  </g>
</svg>
